<svg width="16" height="16" viewBox="0 0 16 16" fill="none" xmlns="http://www.w3.org/2000/svg">
<g clip-path="url(#clip0_444_1875)">
<path d="M1.33337 8.00004C1.33337 4.33337 4.33337 1.33337 8.00004 1.33337C9.03501 1.33337 10.0558 1.57434 10.9815 2.03719C11.9072 2.50004 12.7124 3.17207 13.3334 4.00004" stroke="#2D2D2D" stroke-linecap="round" stroke-linejoin="round"/>
<path d="M3.33337 13C3.66671 12 4.00004 9.99996 4.00004 7.99996C4.00004 7.53329 4.08004 7.08663 4.22671 6.66663" stroke="#2D2D2D" stroke-linecap="round" stroke-linejoin="round"/>
<path d="M11.5266 14.0133C11.6066 13.6133 11.8133 12.48 11.8599 12" stroke="#2D2D2D" stroke-linecap="round" stroke-linejoin="round"/>
<path d="M7.99995 6.66663C7.64633 6.66663 7.30719 6.8071 7.05714 7.05715C6.8071 7.3072 6.66662 7.64634 6.66662 7.99996C6.66662 8.67996 6.59995 9.67329 6.49329 10.6666" stroke="#2D2D2D" stroke-linecap="round" stroke-linejoin="round"/>
<path d="M5.76672 14.6667C5.90672 14.2267 6.06672 13.7867 6.14672 13.3334" stroke="#2D2D2D" stroke-linecap="round" stroke-linejoin="round"/>
<path d="M9.33329 8.7467C9.33329 10.3334 9.33329 13 8.66663 14.6667" stroke="#2D2D2D" stroke-linecap="round" stroke-linejoin="round"/>
<path d="M1.33337 10.6666H1.34004" stroke="#2D2D2D" stroke-linecap="round" stroke-linejoin="round"/>
<path d="M14.5333 10.6666C14.6667 9.33329 14.6207 7.09729 14.5333 6.66663" stroke="#2D2D2D" stroke-linecap="round" stroke-linejoin="round"/>
<path d="M6 4.53334C6.60827 4.18215 7.29828 3.99732 8.00064 3.99744C8.70301 3.99755 9.39296 4.1826 10.0011 4.53398C10.6093 4.88535 11.1142 5.39067 11.4651 5.9991C11.816 6.60754 12.0005 7.29764 12 8C12 8.31333 12 8.78 11.9867 9.33333" stroke="#2D2D2D" stroke-linecap="round" stroke-linejoin="round"/>
</g>
<defs>
<clipPath id="clip0_444_1875">
<rect width="16" height="16" fill="white"/>
</clipPath>
</defs>
</svg>
