<svg width="509" height="404" viewBox="0 0 509 404" fill="none" xmlns="http://www.w3.org/2000/svg">
<g opacity="0.2">
<g clip-path="url(#clip0_300_2873)">
<path fill-rule="evenodd" clip-rule="evenodd" d="M66.7002 -76.5807C49.1266 -59.0071 49.1266 -30.4371 49.1266 26.7028C49.1266 36.2262 49.1266 40.9878 52.0555 43.9168C54.9845 46.8457 59.6985 46.8457 69.1266 46.8457H231.127C240.555 46.8457 245.269 46.8457 248.198 43.9168C251.127 40.9878 251.127 36.2738 251.127 26.8457V-74.1543C251.127 -83.5824 251.127 -88.2964 248.198 -91.2254C245.269 -94.1543 240.555 -94.1543 231.127 -94.1543H169.127C112.558 -94.1543 84.2738 -94.1543 66.7002 -76.5807ZM223.127 -27.1543C220.917 -27.1543 219.127 -25.3634 219.127 -23.1543V16.8457C219.127 19.0548 220.917 20.8457 223.127 20.8457C225.336 20.8457 227.127 19.0548 227.127 16.8457V-23.1543C227.127 -25.3634 225.336 -27.1543 223.127 -27.1543Z" fill="#E1E3D6"/>
<path fill-rule="evenodd" clip-rule="evenodd" d="M531.553 388.272C549.127 370.699 549.127 342.414 549.127 285.846L549.127 235.846C549.127 226.418 549.127 221.704 546.198 218.775C543.269 215.846 538.555 215.846 529.127 215.846L367.127 215.846C357.698 215.846 352.984 215.846 350.056 218.775C347.127 221.704 347.127 226.418 347.127 235.846L347.127 385.846C347.127 395.274 347.127 399.988 350.055 402.917C352.984 405.846 357.698 405.846 367.127 405.846L429.127 405.846C485.695 405.846 513.979 405.846 531.553 388.272ZM375.127 288.846C377.336 288.846 379.127 287.055 379.127 284.846L379.127 244.846C379.127 242.637 377.336 240.846 375.127 240.846C372.917 240.846 371.127 242.637 371.127 244.846L371.127 284.846C371.127 287.055 372.917 288.846 375.127 288.846Z" fill="#E1E3D6"/>
<path fill-rule="evenodd" clip-rule="evenodd" d="M531.553 -76.5807C549.127 -59.0071 549.127 -30.4371 549.127 26.7028C549.127 36.2262 549.127 40.9878 546.198 43.9168C543.269 46.8457 538.555 46.8457 529.127 46.8457H281.127C271.698 46.8457 266.984 46.8457 264.056 43.9168C261.127 40.9878 261.127 36.2738 261.127 26.8457V-74.1543C261.127 -83.5824 261.127 -88.2964 264.056 -91.2254C266.984 -94.1543 271.698 -94.1543 281.127 -94.1543H429.127C485.695 -94.1543 513.979 -94.1543 531.553 -76.5807ZM289.127 -27.1543C291.336 -27.1543 293.127 -25.3634 293.127 -23.1543V16.8457C293.127 19.0548 291.336 20.8457 289.127 20.8457C286.917 20.8457 285.127 19.0548 285.127 16.8457V-23.1543C285.127 -25.3634 286.917 -27.1543 289.127 -27.1543Z" fill="#E1E3D6"/>
<path fill-rule="evenodd" clip-rule="evenodd" d="M66.7002 388.272C49.1266 370.699 49.1266 342.414 49.1266 285.846L49.1266 235.846C49.1266 226.418 49.1266 221.704 52.0556 218.775C54.9845 215.846 59.6985 215.846 69.1266 215.846L317.127 215.846C326.555 215.846 331.269 215.846 334.198 218.775C337.127 221.704 337.127 226.418 337.127 235.846L337.127 385.846C337.127 395.274 337.127 399.988 334.198 402.917C331.269 405.846 326.555 405.846 317.127 405.846L169.127 405.846C112.558 405.846 84.2738 405.846 66.7002 388.272ZM99.1266 260.846C99.1266 251.418 99.1266 246.704 102.056 243.775C104.984 240.846 109.698 240.846 119.127 240.846L276.127 240.846C285.555 240.846 290.269 240.846 293.198 243.775C296.127 246.704 296.127 251.418 296.127 260.846L296.127 354.846C296.127 364.274 296.127 368.988 293.198 371.917C290.269 374.846 285.555 374.846 276.127 374.846L199.127 374.846C151.986 374.846 128.416 374.846 113.771 360.201C99.1266 345.556 99.1266 321.986 99.1266 274.846L99.1266 260.846ZM259.127 254.846C259.127 252.637 257.336 250.846 255.127 250.846L140.127 250.846C137.917 250.846 136.127 252.637 136.127 254.846C136.127 257.055 137.917 258.846 140.127 258.846L255.127 258.846C257.336 258.846 259.127 257.055 259.127 254.846ZM110.823 279.695C109.127 282.537 109.127 286.38 109.127 294.068C109.127 320.974 109.127 334.428 115.063 344.372C118.629 350.348 123.625 355.343 129.6 358.909C139.545 364.846 152.998 364.846 179.904 364.846L262.127 364.846C273.44 364.846 279.097 364.846 282.612 361.331C286.127 357.816 286.127 352.159 286.127 340.846L286.127 297.846C286.127 286.532 286.127 280.875 282.612 277.36C279.097 273.846 273.44 273.846 262.127 273.846L129.349 273.846C121.661 273.846 117.817 273.846 114.976 275.542C113.269 276.561 111.842 277.988 110.823 279.695ZM123.127 255.346C123.127 257.831 121.112 259.846 118.627 259.846C116.141 259.846 114.127 257.831 114.127 255.346C114.127 252.86 116.141 250.846 118.627 250.846C121.112 250.846 123.127 252.86 123.127 255.346ZM275.627 259.846C278.112 259.846 280.127 257.831 280.127 255.346C280.127 252.86 278.112 250.846 275.627 250.846C273.141 250.846 271.127 252.86 271.127 255.346C271.127 257.831 273.141 259.846 275.627 259.846Z" fill="#E1E3D6"/>
<rect x="158.127" y="55.8457" width="281" height="91" rx="10" fill="#E1E3D6"/>
<path d="M153.432 158.607C155.765 157.235 156.932 156.548 158.222 156.197C159.512 155.846 160.866 155.846 163.573 155.846H433.842C436.469 155.846 437.783 155.846 439.039 156.178C440.295 156.509 441.437 157.158 443.722 158.457L513.966 198.368C519.245 201.368 521.885 202.868 521.492 204.357C521.098 205.846 518.062 205.846 511.99 205.846H87.8158C81.9006 205.846 78.943 205.846 78.5415 204.371C78.1399 202.897 80.6892 201.397 85.7877 198.398L153.432 158.607Z" fill="#E1E3D6"/>
<path d="M449.127 75.8457C449.127 66.4176 449.127 61.7036 452.056 58.7746C454.984 55.8457 459.698 55.8457 469.127 55.8457H529.127C538.555 55.8457 543.269 55.8457 546.198 58.7746C549.127 61.7036 549.127 66.4176 549.127 75.8457V175.522C549.127 191.183 549.127 199.014 544.054 201.886C538.981 204.758 532.266 200.729 518.837 192.672L458.837 156.672C454.094 153.826 451.723 152.403 450.425 150.111C449.127 147.818 449.127 145.053 449.127 139.522V75.8457Z" fill="#E1E3D6"/>
<path d="M149.127 75.8457C149.127 66.4176 149.127 61.7036 146.198 58.7746C143.269 55.8457 138.555 55.8457 129.127 55.8457H69.1266C59.6985 55.8457 54.9845 55.8457 52.0555 58.7746C49.1266 61.7036 49.1266 66.4176 49.1266 75.8457V175.522C49.1266 191.183 49.1266 199.014 54.1996 201.886C59.2726 204.758 65.9872 200.729 79.4165 192.672L139.417 156.672C144.159 153.826 146.531 152.403 147.829 150.111C149.127 147.818 149.127 145.053 149.127 139.522V75.8457Z" fill="#E1E3D6"/>
</g>
</g>
<defs>
<clipPath id="clip0_300_2873">
<path d="M0 0H469C491.091 0 509 17.9086 509 40V404H0V0Z" fill="white"/>
</clipPath>
</defs>
</svg>
