<svg width="167" height="48" viewBox="0 0 167 48" fill="none" xmlns="http://www.w3.org/2000/svg">
<path fill-rule="evenodd" clip-rule="evenodd" d="M1.6633 2.12473C0 3.78803 0 6.49212 0 11.9003C0 12.8017 0 13.2523 0.277217 13.5296C0.554434 13.8068 1.00061 13.8068 1.89295 13.8068H17.2259C18.1183 13.8068 18.5644 13.8068 18.8417 13.5296C19.1189 13.2523 19.1189 12.8062 19.1189 11.9138V2.35438C19.1189 1.46203 19.1189 1.01586 18.8417 0.738643C18.5644 0.461426 18.1183 0.461426 17.2259 0.461426H11.3577C6.00365 0.461426 3.32661 0.461426 1.6633 2.12473ZM16.4687 6.80284C16.2596 6.80284 16.0901 6.97235 16.0901 7.18144V10.9673C16.0901 11.1764 16.2596 11.3459 16.4687 11.3459C16.6778 11.3459 16.8473 11.1764 16.8473 10.9673V7.18144C16.8473 6.97235 16.6778 6.80284 16.4687 6.80284Z" fill="white"/>
<path fill-rule="evenodd" clip-rule="evenodd" d="M45.6606 46.1221C47.3239 44.4588 47.3239 41.7817 47.3239 36.4277L47.3239 31.6953C47.3239 30.8029 47.3239 30.3567 47.0467 30.0795C46.7695 29.8023 46.3233 29.8023 45.431 29.8023L30.098 29.8023C29.2057 29.8023 28.7595 29.8023 28.4823 30.0795C28.205 30.3567 28.205 30.8029 28.205 31.6953L28.205 45.8924C28.205 46.7848 28.205 47.231 28.4823 47.5082C28.7595 47.7854 29.2057 47.7854 30.098 47.7854L35.9662 47.7854C41.3203 47.7854 43.9973 47.7854 45.6606 46.1221ZM30.8552 36.7115C31.0643 36.7115 31.2338 36.542 31.2338 36.3329L31.2338 32.547C31.2338 32.3379 31.0643 32.1684 30.8552 32.1684C30.6461 32.1684 30.4766 32.3379 30.4766 32.547L30.4766 36.3329C30.4766 36.542 30.6461 36.7115 30.8552 36.7115Z" fill="white"/>
<path fill-rule="evenodd" clip-rule="evenodd" d="M45.6606 2.12473C47.3239 3.78803 47.3239 6.49212 47.3239 11.9003C47.3239 12.8017 47.3239 13.2523 47.0467 13.5296C46.7695 13.8068 46.3233 13.8068 45.431 13.8068H21.9583C21.0659 13.8068 20.6198 13.8068 20.3425 13.5296C20.0653 13.2523 20.0653 12.8062 20.0653 11.9138V2.35438C20.0653 1.46203 20.0653 1.01586 20.3425 0.738643C20.6198 0.461426 21.0659 0.461426 21.9583 0.461426H35.9662C41.3203 0.461426 43.9973 0.461426 45.6606 2.12473ZM22.7154 6.80284C22.9245 6.80284 23.094 6.97235 23.094 7.18144V10.9673C23.094 11.1764 22.9245 11.3459 22.7154 11.3459C22.5064 11.3459 22.3369 11.1764 22.3369 10.9673V7.18144C22.3369 6.97235 22.5064 6.80284 22.7154 6.80284Z" fill="white"/>
<path fill-rule="evenodd" clip-rule="evenodd" d="M1.6633 46.1221C5.81642e-07 44.4588 1.04971e-06 41.7817 1.98585e-06 36.4277L2.81329e-06 31.6953C2.96931e-06 30.8029 3.04732e-06 30.3567 0.277221 30.0795C0.554439 29.8023 1.00061 29.8023 1.89296 29.8023L25.3656 29.8023C26.258 29.8023 26.7042 29.8023 26.9814 30.0795C27.2586 30.3567 27.2586 30.8029 27.2586 31.6953L27.2586 45.8924C27.2586 46.7848 27.2586 47.231 26.9814 47.5082C26.7042 47.7854 26.258 47.7854 25.3656 47.7854L11.3577 47.7854C6.00365 47.7854 3.32661 47.7854 1.6633 46.1221ZM4.73248 34.0614C4.73248 33.1691 4.73248 32.7229 5.0097 32.4457C5.28691 32.1685 5.73309 32.1685 6.62544 32.1685L21.4851 32.1685C22.3775 32.1685 22.8237 32.1685 23.1009 32.4457C23.3781 32.7229 23.3781 33.1691 23.3781 34.0614L23.3781 42.9583C23.3781 43.8507 23.3781 44.2968 23.1009 44.574C22.8237 44.8513 22.3775 44.8513 21.4851 44.8513L14.1973 44.8513C9.73552 44.8513 7.50465 44.8513 6.11856 43.4652C4.73248 42.0791 4.73248 39.8482 4.73248 35.3865L4.73248 34.0614ZM19.876 33.4935C19.876 33.2844 19.7065 33.1149 19.4974 33.1149L8.61289 33.1149C8.4038 33.1149 8.2343 33.2844 8.2343 33.4935C8.2343 33.7026 8.4038 33.8721 8.61289 33.8721L19.4974 33.8721C19.7065 33.8721 19.876 33.7026 19.876 33.4935ZM5.83947 35.8455C5.67894 36.1144 5.67894 36.4782 5.67894 37.2058C5.67894 39.7525 5.67894 41.0258 6.24079 41.9671C6.57836 42.5326 7.05115 43.0054 7.61668 43.343C8.55795 43.9048 9.83127 43.9048 12.3779 43.9048L20.1601 43.9048C21.2309 43.9048 21.7663 43.9048 22.099 43.5722C22.4316 43.2395 22.4316 42.7041 22.4316 41.6333L22.4316 41.6333L22.4316 37.5634C22.4316 36.4926 22.4316 35.9572 22.0989 35.6245C21.7663 35.2919 21.2309 35.2919 20.1601 35.2919L7.59293 35.2919C6.86532 35.2919 6.50151 35.2919 6.23258 35.4524C6.071 35.5488 5.93592 35.6839 5.83947 35.8455ZM7.00388 33.5408C7.00388 33.776 6.81319 33.9667 6.57797 33.9667C6.34274 33.9667 6.15205 33.776 6.15205 33.5408C6.15205 33.3056 6.34274 33.1149 6.57797 33.1149C6.81319 33.1149 7.00388 33.3056 7.00388 33.5408ZM21.4377 33.9667C21.6729 33.9667 21.8636 33.776 21.8636 33.5408C21.8636 33.3056 21.6729 33.1149 21.4377 33.1149C21.2025 33.1149 21.0118 33.3056 21.0118 33.5408C21.0118 33.776 21.2025 33.9667 21.4377 33.9667Z" fill="white"/>
<rect x="10.3167" y="14.6586" width="26.596" height="8.61295" rx="0.946479" fill="white"/>
<path d="M9.87225 24.3848C10.0931 24.2549 10.2035 24.1899 10.3256 24.1567C10.4477 24.1234 10.5758 24.1234 10.832 24.1234H36.4124C36.6611 24.1234 36.7854 24.1234 36.9043 24.1548C37.0232 24.1862 37.1313 24.2477 37.3475 24.3705L43.9959 28.148C44.4957 28.432 44.7455 28.5739 44.7083 28.7149C44.671 28.8558 44.3837 28.8558 43.8089 28.8558H3.66179C3.10193 28.8558 2.82199 28.8558 2.78399 28.7162C2.74599 28.5767 2.98727 28.4348 3.46984 28.1509L9.87225 24.3848Z" fill="white"/>
<path d="M37.8592 16.5515C37.8592 15.6592 37.8592 15.213 38.1364 14.9358C38.4136 14.6586 38.8598 14.6586 39.7521 14.6586H45.431C46.3234 14.6586 46.7695 14.6586 47.0468 14.9358C47.324 15.213 47.324 15.6592 47.324 16.5515V25.9857C47.324 27.468 47.324 28.2091 46.8438 28.481C46.3637 28.7528 45.7282 28.3715 44.4571 27.6089L38.7782 24.2015C38.3293 23.9322 38.1049 23.7975 37.982 23.5806C37.8592 23.3636 37.8592 23.1018 37.8592 22.5783V16.5515Z" fill="white"/>
<path d="M9.46472 16.5515C9.46472 15.6592 9.46472 15.213 9.1875 14.9358C8.91029 14.6586 8.46411 14.6586 7.57176 14.6586H1.89289C1.00054 14.6586 0.55437 14.6586 0.277153 14.9358C-6.4522e-05 15.213 -6.4522e-05 15.6592 -6.4522e-05 16.5515V25.9857C-6.4522e-05 27.468 -6.4522e-05 28.2091 0.480085 28.481C0.960235 28.7528 1.59576 28.3715 2.86681 27.6089L8.54568 24.2015C8.99457 23.9322 9.21902 23.7975 9.34187 23.5806C9.46472 23.3636 9.46472 23.1018 9.46472 22.5783V16.5515Z" fill="white"/>
<path d="M81.0712 18.8943V24.5341H79.7297V20.1537H61.9617L61.9343 24.5341H60.5928L60.6202 18.8943H63.0294V8.98365C63.0294 6.35541 63.723 4.34773 65.1101 2.96061C66.5155 1.55523 68.4228 0.852539 70.832 0.852539C73.2595 0.852539 75.1668 1.55523 76.5539 2.96061C77.9593 4.34773 78.662 6.35541 78.662 8.98365V18.8943H81.0712ZM77.2383 18.8943V8.84676C77.2383 6.63831 76.6725 4.96829 75.5409 3.83668C74.4276 2.70508 72.8579 2.13928 70.832 2.13928C68.8061 2.13928 67.2364 2.70508 66.1231 3.83668C65.0097 4.96829 64.4531 6.63831 64.4531 8.84676V18.8943H77.2383Z" fill="white"/>
<path d="M90.5549 20.2632C89.2043 20.2632 87.9814 19.9529 86.8863 19.3323C85.8095 18.7118 84.9608 17.854 84.3402 16.7589C83.7197 15.6455 83.4094 14.3953 83.4094 13.0081C83.4094 11.621 83.7197 10.3799 84.3402 9.2848C84.9608 8.17145 85.8095 7.3045 86.8863 6.68394C87.9814 6.06339 89.2043 5.75311 90.5549 5.75311C91.9055 5.75311 93.1193 6.06339 94.1961 6.68394C95.2912 7.3045 96.149 8.17145 96.7696 9.2848C97.3902 10.3799 97.7004 11.621 97.7004 13.0081C97.7004 14.3953 97.3902 15.6455 96.7696 16.7589C96.149 17.854 95.2912 18.7118 94.1961 19.3323C93.1193 19.9529 91.9055 20.2632 90.5549 20.2632ZM90.5549 19.0312C91.65 19.0312 92.6265 18.7757 93.4843 18.2646C94.3604 17.7536 95.0448 17.0418 95.5376 16.1292C96.0487 15.2166 96.3042 14.1762 96.3042 13.0081C96.3042 11.84 96.0487 10.7997 95.5376 9.88711C95.0448 8.97453 94.3604 8.26271 93.4843 7.75166C92.6265 7.24062 91.65 6.98509 90.5549 6.98509C89.4598 6.98509 88.4742 7.24062 87.5981 7.75166C86.7403 8.26271 86.0559 8.97453 85.5448 9.88711C85.052 10.7997 84.8056 11.84 84.8056 13.0081C84.8056 14.1762 85.052 15.2166 85.5448 16.1292C86.0559 17.0418 86.7403 17.7536 87.5981 18.2646C88.4742 18.7757 89.4598 19.0312 90.5549 19.0312Z" fill="white"/>
<path d="M117.709 5.86262V20.1537H116.45V8.05282L110.235 18.3194H109.605L103.418 8.08019V20.1537H102.158V5.86262H103.5L109.961 16.6767L116.45 5.86262H117.709Z" fill="white"/>
<path d="M136.276 5.86262V20.1537H134.934V16.7862C134.368 17.8996 133.574 18.7574 132.552 19.3597C131.53 19.962 130.371 20.2632 129.075 20.2632C127.743 20.2632 126.538 19.9529 125.462 19.3323C124.385 18.7118 123.536 17.854 122.916 16.7589C122.313 15.6638 122.012 14.4135 122.012 13.0081C122.012 11.6028 122.313 10.3525 122.916 9.25743C123.536 8.14407 124.385 7.28625 125.462 6.68394C126.538 6.06339 127.743 5.75311 129.075 5.75311C130.353 5.75311 131.494 6.05426 132.498 6.65657C133.52 7.25887 134.323 8.09845 134.907 9.17529V5.86262H136.276ZM129.158 19.0312C130.253 19.0312 131.229 18.7757 132.087 18.2646C132.963 17.7536 133.647 17.0418 134.14 16.1292C134.651 15.2166 134.907 14.1762 134.907 13.0081C134.907 11.84 134.651 10.7997 134.14 9.88711C133.647 8.97453 132.963 8.26271 132.087 7.75166C131.229 7.24062 130.253 6.98509 129.158 6.98509C128.062 6.98509 127.077 7.24062 126.201 7.75166C125.343 8.26271 124.659 8.97453 124.148 9.88711C123.655 10.7997 123.408 11.84 123.408 13.0081C123.408 14.1762 123.655 15.2166 124.148 16.1292C124.659 17.0418 125.343 17.7536 126.201 18.2646C127.077 18.7757 128.062 19.0312 129.158 19.0312Z" fill="white"/>
<path d="M71.4617 42.0556L66.5611 35.6767L61.6606 42.0556H60.1L65.7672 34.6911L60.4012 27.7646H61.9617L66.5611 33.7055L71.1605 27.7646H72.6937L67.3277 34.6911L73.077 42.0556H71.4617Z" fill="white"/>
<path d="M81.7321 42.1652C80.3815 42.1652 79.1586 41.8549 78.0635 41.2343C76.9867 40.6138 76.138 39.7559 75.5174 38.6608C74.8969 37.5475 74.5866 36.2973 74.5866 34.9101C74.5866 33.523 74.8969 32.2819 75.5174 31.1868C76.138 30.0734 76.9867 29.2065 78.0635 28.5859C79.1586 27.9654 80.3815 27.6551 81.7321 27.6551C83.0827 27.6551 84.2965 27.9654 85.3733 28.5859C86.4684 29.2065 87.3262 30.0734 87.9468 31.1868C88.5673 32.2819 88.8776 33.523 88.8776 34.9101C88.8776 36.2973 88.5673 37.5475 87.9468 38.6608C87.3262 39.7559 86.4684 40.6138 85.3733 41.2343C84.2965 41.8549 83.0827 42.1652 81.7321 42.1652ZM81.7321 40.9332C82.8272 40.9332 83.8037 40.6776 84.6615 40.1666C85.5376 39.6556 86.222 38.9437 86.7148 38.0312C87.2258 37.1186 87.4814 36.0782 87.4814 34.9101C87.4814 33.742 87.2258 32.7017 86.7148 31.7891C86.222 30.8765 85.5376 30.1647 84.6615 29.6536C83.8037 29.1426 82.8272 28.8871 81.7321 28.8871C80.637 28.8871 79.6514 29.1426 78.7753 29.6536C77.9175 30.1647 77.2331 30.8765 76.722 31.7891C76.2292 32.7017 75.9828 33.742 75.9828 34.9101C75.9828 36.0782 76.2292 37.1186 76.722 38.0312C77.2331 38.9437 77.9175 39.6556 78.7753 40.1666C79.6514 40.6776 80.637 40.9332 81.7321 40.9332Z" fill="white"/>
<path d="M99.7146 27.6551C101.083 27.6551 102.306 27.9654 103.383 28.5859C104.46 29.2065 105.3 30.0734 105.902 31.1868C106.504 32.2819 106.805 33.5321 106.805 34.9375C106.805 36.3246 106.504 37.5657 105.902 38.6608C105.318 39.7559 104.497 40.6138 103.438 41.2343C102.379 41.8549 101.175 42.1652 99.8241 42.1652C98.51 42.1652 97.351 41.8731 96.3472 41.2891C95.3616 40.705 94.5859 39.8746 94.0201 38.7977V47.3669H92.6512V34.9375C92.6512 33.5321 92.9524 32.2819 93.5547 31.1868C94.157 30.0734 94.9874 29.2065 96.046 28.5859C97.1229 27.9654 98.3457 27.6551 99.7146 27.6551ZM99.6872 40.9605C100.782 40.9605 101.768 40.705 102.644 40.194C103.52 39.6647 104.205 38.9437 104.697 38.0312C105.19 37.1186 105.436 36.0874 105.436 34.9375C105.436 33.7694 105.19 32.7291 104.697 31.8165C104.205 30.9039 103.52 30.1921 102.644 29.681C101.786 29.1517 100.801 28.8871 99.6872 28.8871C98.5921 28.8871 97.6065 29.1426 96.7305 29.6536C95.8726 30.1647 95.1973 30.8765 94.7045 31.7891C94.23 32.7017 93.9927 33.742 93.9927 34.9101C93.9927 36.0782 94.23 37.1186 94.7045 38.0312C95.1973 38.9437 95.8726 39.6647 96.7305 40.194C97.6065 40.705 98.5921 40.9605 99.6872 40.9605Z" fill="white"/>
<path d="M116.997 42.1652C115.646 42.1652 114.423 41.8549 113.328 41.2343C112.251 40.6138 111.403 39.7559 110.782 38.6608C110.161 37.5475 109.851 36.2973 109.851 34.9101C109.851 33.523 110.161 32.2819 110.782 31.1868C111.403 30.0734 112.251 29.2065 113.328 28.5859C114.423 27.9654 115.646 27.6551 116.997 27.6551C118.347 27.6551 119.561 27.9654 120.638 28.5859C121.733 29.2065 122.591 30.0734 123.211 31.1868C123.832 32.2819 124.142 33.523 124.142 34.9101C124.142 36.2973 123.832 37.5475 123.211 38.6608C122.591 39.7559 121.733 40.6138 120.638 41.2343C119.561 41.8549 118.347 42.1652 116.997 42.1652ZM116.997 40.9332C118.092 40.9332 119.068 40.6776 119.926 40.1666C120.802 39.6556 121.487 38.9437 121.979 38.0312C122.49 37.1186 122.746 36.0782 122.746 34.9101C122.746 33.742 122.49 32.7017 121.979 31.7891C121.487 30.8765 120.802 30.1647 119.926 29.6536C119.068 29.1426 118.092 28.8871 116.997 28.8871C115.902 28.8871 114.916 29.1426 114.04 29.6536C113.182 30.1647 112.498 30.8765 111.987 31.7891C111.494 32.7017 111.247 33.742 111.247 34.9101C111.247 36.0782 111.494 37.1186 111.987 38.0312C112.498 38.9437 113.182 39.6556 114.04 40.1666C114.916 40.6776 115.902 40.9332 116.997 40.9332Z" fill="white"/>
<path d="M147.819 27.7646V42.0556H128.6V27.7646H129.969V40.851H137.553V27.7646H138.922V40.851H146.45V27.7646H147.819Z" fill="white"/>
<path d="M159.426 42.1652C158.076 42.1652 156.853 41.8549 155.758 41.2343C154.681 40.6138 153.832 39.7559 153.212 38.6608C152.591 37.5475 152.281 36.2973 152.281 34.9101C152.281 33.523 152.591 32.2819 153.212 31.1868C153.832 30.0734 154.681 29.2065 155.758 28.5859C156.853 27.9654 158.076 27.6551 159.426 27.6551C160.777 27.6551 161.991 27.9654 163.068 28.5859C164.163 29.2065 165.021 30.0734 165.641 31.1868C166.262 32.2819 166.572 33.523 166.572 34.9101C166.572 36.2973 166.262 37.5475 165.641 38.6608C165.021 39.7559 164.163 40.6138 163.068 41.2343C161.991 41.8549 160.777 42.1652 159.426 42.1652ZM159.426 40.9332C160.521 40.9332 161.498 40.6776 162.356 40.1666C163.232 39.6556 163.916 38.9437 164.409 38.0312C164.92 37.1186 165.176 36.0782 165.176 34.9101C165.176 33.742 164.92 32.7017 164.409 31.7891C163.916 30.8765 163.232 30.1647 162.356 29.6536C161.498 29.1426 160.521 28.8871 159.426 28.8871C158.331 28.8871 157.346 29.1426 156.47 29.6536C155.612 30.1647 154.927 30.8765 154.416 31.7891C153.924 32.7017 153.677 33.742 153.677 34.9101C153.677 36.0782 153.924 37.1186 154.416 38.0312C154.927 38.9437 155.612 39.6556 156.47 40.1666C157.346 40.6776 158.331 40.9332 159.426 40.9332Z" fill="white"/>
</svg>
