<svg width="26" height="27" viewBox="0 0 26 27" fill="none" xmlns="http://www.w3.org/2000/svg">
<path d="M18.3334 12.4521C18.3334 16.4521 13 20.4521 13 20.4521C13 20.4521 7.66669 16.4521 7.66669 12.4521C7.66669 11.0376 8.22859 9.68107 9.22878 8.68087C10.229 7.68068 11.5855 7.11877 13 7.11877C14.4145 7.11877 15.7711 7.68068 16.7713 8.68087C17.7715 9.68107 18.3334 11.0376 18.3334 12.4521Z" stroke="white" stroke-linecap="round" stroke-linejoin="round"/>
<path d="M13 14.452C14.1046 14.452 15 13.5566 15 12.452C15 11.3475 14.1046 10.452 13 10.452C11.8954 10.452 11 11.3475 11 12.452C11 13.5566 11.8954 14.452 13 14.452Z" stroke="white" stroke-linecap="round" stroke-linejoin="round"/>
</svg>
