<svg width="20" height="21" viewBox="0 0 20 21" fill="none" xmlns="http://www.w3.org/2000/svg">
<path d="M6.16063 2.66504L6.16062 2.66504C6.14898 2.67666 6.13975 2.69045 6.13345 2.70564C6.12715 2.72082 6.1239 2.7371 6.1239 2.75354C6.1239 2.76999 6.12715 2.78627 6.13345 2.80145C6.13975 2.81664 6.14898 2.83043 6.16062 2.84204L6.16104 2.84246L13.2198 9.89996L13.5734 10.2535L13.2198 10.6071L6.16107 17.6646C6.13748 17.6882 6.12423 17.7202 6.12423 17.7535C6.12423 17.7869 6.13748 17.8189 6.16107 17.8425C6.18466 17.8661 6.21666 17.8793 6.25002 17.8793C6.28338 17.8793 6.31538 17.8661 6.33896 17.8425L13.839 10.3425L13.8394 10.342C13.851 10.3304 13.8603 10.3166 13.8666 10.3015L6.16063 2.66504ZM6.16063 2.66504L6.16152 2.66415M6.16063 2.66504L6.16152 2.66415M6.16152 2.66415C6.17313 2.65251 6.18692 2.64327 6.20211 2.63697C6.2173 2.63067 6.23358 2.62743 6.25002 2.62743C6.26646 2.62743 6.28274 2.63067 6.29793 2.63697C6.31311 2.64327 6.32691 2.65251 6.33852 2.66415L6.33896 2.6646M6.16152 2.66415L6.33896 2.6646M6.33896 2.6646L13.839 10.1646L13.8394 10.165M6.33896 2.6646L13.8394 10.165M13.8394 10.165C13.8511 10.1767 13.8603 10.1904 13.8666 10.2056M13.8394 10.165L13.8666 10.2056M13.8666 10.2056C13.8729 10.2208 13.8761 10.2371 13.8761 10.2535M13.8666 10.2056L13.8761 10.2535M13.8761 10.2535C13.8761 10.27 13.8729 10.2863 13.8666 10.3014L13.8761 10.2535Z" stroke="#2D2D2D"/>
</svg>
