<svg width="46" height="46" viewBox="0 0 46 46" fill="none" xmlns="http://www.w3.org/2000/svg">
<g clip-path="url(#clip0_411_4438)">
<path d="M8.16159 22.8086C8.16087 25.4972 8.84674 28.1224 10.1509 30.4363L8.03687 38.3423L15.9361 36.2209C18.1209 37.4391 20.5688 38.0775 23.0564 38.0776H23.0629C31.2749 38.0776 37.9596 31.2332 37.9631 22.8206C37.9647 18.7441 36.4162 14.9108 33.6027 12.0268C30.7897 9.14307 27.0485 7.55411 23.0623 7.55225C14.8494 7.55225 8.1651 14.3963 8.16171 22.8086" fill="url(#paint0_linear_411_4438)"/>
<path d="M7.62957 22.8035C7.62872 25.5889 8.33918 28.308 9.68986 30.7048L7.5 38.8942L15.6824 36.6967C17.9369 37.9558 20.4753 38.6196 23.0582 38.6206H23.0649C31.5715 38.6206 38.4964 31.53 38.5 22.8162C38.5015 18.5932 36.8972 14.6221 33.9832 11.6348C31.0688 8.64788 27.1938 7.00174 23.0649 7C14.5569 7 7.63296 14.0896 7.62957 22.8035ZM12.5025 30.292L12.197 29.7953C10.9127 27.7036 10.2348 25.2865 10.2357 22.8045C10.2384 15.5617 15.9933 9.66915 23.0698 9.66915C26.4967 9.67064 29.7173 11.0389 32.1397 13.5216C34.5619 16.0044 35.8948 19.3049 35.8939 22.8152C35.8908 30.058 30.1358 35.9513 23.0649 35.9513H23.0598C20.7575 35.9501 18.4994 35.3168 16.5302 34.12L16.0616 33.8353L11.206 35.1393L12.5025 30.292Z" fill="url(#paint1_linear_411_4438)"/>
<path d="M19.2071 16.1966C18.9182 15.5389 18.6141 15.5256 18.3394 15.5141C18.1144 15.5042 17.8572 15.5049 17.6002 15.5049C17.343 15.5049 16.9251 15.604 16.5719 15.999C16.2183 16.3944 15.2219 17.35 15.2219 19.2934C15.2219 21.2369 16.604 23.1152 16.7966 23.379C16.9895 23.6423 19.4647 27.7582 23.3847 29.3415C26.6426 30.6574 27.3056 30.3957 28.0127 30.3297C28.7199 30.264 30.2946 29.3744 30.6158 28.452C30.9373 27.5297 30.9374 26.7391 30.841 26.5739C30.7446 26.4093 30.4874 26.3105 30.1017 26.113C29.716 25.9156 27.8198 24.9598 27.4663 24.8279C27.1127 24.6962 26.8556 24.6305 26.5984 25.026C26.3412 25.4209 25.6027 26.3105 25.3776 26.5739C25.1527 26.838 24.9276 26.8708 24.542 26.6733C24.1561 26.4751 22.914 26.0584 21.4405 24.7128C20.2939 23.6658 19.5199 22.3727 19.2949 21.9772C19.0699 21.5823 19.2708 21.3682 19.4642 21.1714C19.6375 20.9944 19.85 20.7101 20.043 20.4795C20.2353 20.2488 20.2995 20.0842 20.4281 19.8208C20.5568 19.5571 20.4924 19.3264 20.3961 19.1288C20.2995 18.9313 19.5501 16.9776 19.2071 16.1966Z" fill="white"/>
</g>
<defs>
<linearGradient id="paint0_linear_411_4438" x1="1504.35" y1="3086.56" x2="1504.35" y2="7.55225" gradientUnits="userSpaceOnUse">
<stop stop-color="#1FAF38"/>
<stop offset="1" stop-color="#60D669"/>
</linearGradient>
<linearGradient id="paint1_linear_411_4438" x1="1557.5" y1="3196.42" x2="1557.5" y2="7" gradientUnits="userSpaceOnUse">
<stop stop-color="#F9F9F9"/>
<stop offset="1" stop-color="white"/>
</linearGradient>
<clipPath id="clip0_411_4438">
<rect width="31" height="32" fill="white" transform="translate(7.5 7)"/>
</clipPath>
</defs>
</svg>
