<svg width="173" height="51" viewBox="0 0 173 51" fill="none" xmlns="http://www.w3.org/2000/svg">
<path fill-rule="evenodd" clip-rule="evenodd" d="M1.72708 2.61917C0 4.34625 0 7.12594 0 12.6853V38.2373C0 43.7967 0 46.5764 1.72708 48.3035C3.45416 50.0306 6.23385 50.0306 11.7932 50.0306H37.3453C42.9046 50.0306 45.6843 50.0306 47.4114 48.3035C49.1385 46.5764 49.1385 43.7967 49.1385 38.2374V12.6853C49.1385 7.12594 49.1385 4.34625 47.4114 2.61917C45.6843 0.89209 42.9046 0.89209 37.3453 0.89209H11.7932C6.23385 0.89209 3.45416 0.89209 1.72708 2.61917ZM2.70985 3.602C0.982771 5.32908 0.982771 8.10877 0.982771 13.6682V37.2546C0.982771 42.814 0.982771 45.5937 2.70985 47.3208C4.43693 49.0479 7.21662 49.0479 12.776 49.0479H36.3625C41.9219 49.0479 44.7016 49.0479 46.4286 47.3208C48.1557 45.5937 48.1557 42.814 48.1557 37.2546V13.6682C48.1557 8.10877 48.1557 5.32908 46.4286 3.602C44.7016 1.87492 41.9219 1.87492 36.3625 1.87492H12.776C7.21662 1.87492 4.43693 1.87492 2.70985 3.602Z" fill="#66595B"/>
<path fill-rule="evenodd" clip-rule="evenodd" d="M49.1385 12.6853C49.1385 8.07845 49.1385 5.38036 48.1557 3.60828V12.6854C48.1557 13.612 48.1557 14.0752 47.8679 14.3631C47.58 14.6509 47.1167 14.6509 46.1902 14.6509H37.3453H22.702C21.7754 14.6509 21.3121 14.6509 21.0243 14.3631C20.7364 14.0752 20.7364 13.612 20.7364 12.6854V2.26803C20.7364 1.6102 20.7364 1.18589 20.8395 0.89209H19.6507C19.7537 1.18589 19.7537 1.6102 19.7537 2.26803V12.6854C19.7537 13.612 19.7537 14.0752 19.4658 14.3631C19.178 14.6509 18.7147 14.6509 17.7881 14.6509H11.7932H11.7932H2.94831C2.02175 14.6509 1.55846 14.6509 1.27062 14.3631C0.98277 14.0752 0.98277 13.612 0.98277 12.6854V3.60827C0 5.38036 0 8.07845 0 12.6853V13.6682C0 14.5947 0 15.058 0.287847 15.3459C0.575693 15.6337 1.03898 15.6337 1.96554 15.6337H9.85263C9.8277 15.8872 9.8277 16.2065 9.8277 16.6165V23.4959C9.8277 24.1359 9.8277 24.5549 9.92259 24.8477L0.491391 30.2928L0.596968 30.4757C0.473587 30.5179 0.373034 30.5779 0.287846 30.6631C0 30.9509 0 31.4142 0 32.3408V38.2373C0 42.8451 -1.5066e-06 45.5434 0.983361 47.3155C0.98277 47.2121 0.98277 47.1018 0.98277 46.9841V33.3236C0.98277 32.397 0.98277 31.9337 1.27062 31.6459C1.55846 31.358 2.02174 31.358 2.94831 31.358H26.5348C27.4614 31.358 27.9246 31.358 28.2125 31.6459C28.5003 31.9337 28.5003 32.397 28.5003 33.3236V46.9841C28.5003 47.9106 28.5003 48.3739 28.2125 48.6618C27.9246 48.9496 27.4614 48.9496 26.5348 48.9496H2.94831C2.80311 48.9496 2.66929 48.9496 2.54573 48.9485C4.31431 50.0306 7.03611 50.0306 11.7932 50.0306H37.3453C42.1024 50.0306 44.8242 50.0306 46.5928 48.9485C46.4692 48.9496 46.3354 48.9496 46.1902 48.9496H31.4486C30.5221 48.9496 30.0588 48.9496 29.7709 48.6618C29.4831 48.3739 29.4831 47.9106 29.4831 46.9841V33.3236C29.4831 32.397 29.4831 31.9337 29.7709 31.6459C30.0588 31.358 30.5221 31.358 31.4486 31.358H46.1902C47.1167 31.358 47.58 31.358 47.8679 31.6459C48.1557 31.9337 48.1557 32.397 48.1557 33.3236V46.9841C48.1557 47.1018 48.1557 47.2121 48.1551 47.3154C49.1385 45.5434 49.1385 42.8451 49.1385 38.2374V32.3408V32.3408C49.1385 31.4142 49.1385 30.9509 48.8506 30.6631C48.7724 30.5849 48.6812 30.5279 48.5713 30.4864L48.6922 30.277L39.2268 24.8121C39.3108 24.5212 39.3108 24.1104 39.3108 23.4959V16.6165C39.3108 16.2065 39.3108 15.8872 39.2859 15.6337H47.173C48.0995 15.6337 48.5628 15.6337 48.8506 15.3459C49.1385 15.058 49.1385 14.5947 49.1385 13.6682V12.6853ZM10.8606 25.441L2.31419 30.3752H46.8969L38.3405 25.4352C38.085 25.4614 37.762 25.4614 37.3453 25.4614H11.7932C11.4098 25.4614 11.1057 25.4614 10.8606 25.441ZM12.776 15.6337C11.8494 15.6337 11.3862 15.6337 11.0983 15.9215C10.8105 16.2094 10.8105 16.6727 10.8105 17.5992V22.5131C10.8105 23.4397 10.8105 23.9029 11.0983 24.1908C11.3862 24.4786 11.8494 24.4786 12.776 24.4786H36.3625C37.2891 24.4786 37.7523 24.4786 38.0402 24.1908C38.328 23.9029 38.328 23.4397 38.328 22.5131V17.5992C38.328 16.6727 38.328 16.2094 38.0402 15.9215C37.7523 15.6337 37.2891 15.6337 36.3625 15.6337H12.776H12.776Z" fill="#66595B"/>
<rect x="31.4486" y="34.0115" width="0.98277" height="4.91385" rx="0.491385" fill="#66595B"/>
<rect x="16.7071" y="7.28003" width="0.98277" height="4.91385" rx="0.491385" fill="#66595B"/>
<rect x="22.6037" y="7.28003" width="0.98277" height="4.91385" rx="0.491385" fill="#66595B"/>
<path fill-rule="evenodd" clip-rule="evenodd" d="M5.20173 34.1028C4.91388 34.3906 4.91388 34.8539 4.91388 35.7805V37.1564C4.91388 41.7892 4.91388 44.1056 6.35311 45.5448C7.79235 46.9841 10.1088 46.9841 14.7416 46.9841H22.3089C23.2355 46.9841 23.6988 46.9841 23.9866 46.6962C24.2744 46.4084 24.2744 45.9451 24.2744 45.0185V35.7805C24.2744 34.8539 24.2744 34.3906 23.9866 34.1028C23.6988 33.8149 23.2355 33.8149 22.3089 33.8149H6.87942C5.95285 33.8149 5.48957 33.8149 5.20173 34.1028ZM20.2451 34.7977C20.4622 34.7977 20.6382 34.9737 20.6382 35.1908C20.6382 35.4079 20.4622 35.5839 20.2451 35.5839L8.94324 35.5839C8.72614 35.5839 8.55013 35.4079 8.55013 35.1908C8.55013 34.9737 8.72614 34.7977 8.94324 34.7977L20.2451 34.7977ZM5.89665 39.0455C5.89665 38.2899 5.89665 37.9122 6.06334 37.6329C6.16348 37.4652 6.30375 37.3249 6.47152 37.2248C6.75077 37.0581 7.12852 37.0581 7.88403 37.0581H20.933C22.0449 37.0581 22.6008 37.0581 22.9463 37.4035C23.2917 37.7489 23.2917 38.3048 23.2917 39.4167V43.6426C23.2917 44.7545 23.2917 45.3104 22.9463 45.6559C22.6008 46.0013 22.0449 46.0013 20.933 46.0013H12.8525C10.2082 46.0013 8.88605 46.0013 7.9087 45.4179C7.32148 45.0674 6.83056 44.5765 6.48004 43.9892C5.89665 43.0119 5.89665 41.6897 5.89665 39.0455ZM6.83028 35.6822C7.07453 35.6822 7.27253 35.4842 7.27253 35.24C7.27253 34.9957 7.07453 34.7977 6.83028 34.7977C6.58604 34.7977 6.38804 34.9957 6.38804 35.24C6.38804 35.4842 6.58604 35.6822 6.83028 35.6822ZM22.702 35.24C22.702 35.4842 22.504 35.6822 22.2598 35.6822C22.0155 35.6822 21.8175 35.4842 21.8175 35.24C21.8175 34.9957 22.0155 34.7977 22.2598 34.7977C22.504 34.7977 22.702 34.9957 22.702 35.24Z" fill="#66595B"/>
<path d="M84.1798 20.3703V26.2263H82.7869V21.6779H64.3376L64.3092 26.2263H62.9162L62.9447 20.3703H65.4463V10.0796C65.4463 7.35059 66.1664 5.26593 67.6067 3.82562C69.066 2.36635 71.0464 1.63672 73.548 1.63672C76.0686 1.63672 78.049 2.36635 79.4893 3.82562C80.9486 5.26593 81.6782 7.35059 81.6782 10.0796V20.3703H84.1798ZM80.2 20.3703V9.93747C80.2 7.64434 79.6125 5.91028 78.4375 4.73529C77.2815 3.56029 75.6516 2.9728 73.548 2.9728C71.4444 2.9728 69.8146 3.56029 68.6585 4.73529C67.5025 5.91028 66.9245 7.64434 66.9245 9.93747V20.3703H80.2Z" fill="#2D2D2D"/>
<path d="M94.0272 21.7916C92.6248 21.7916 91.355 21.4695 90.2179 20.8251C89.0998 20.1807 88.2185 19.29 87.5742 18.1529C86.9298 16.9969 86.6077 15.6987 86.6077 14.2584C86.6077 12.8181 86.9298 11.5294 87.5742 10.3923C88.2185 9.23626 89.0998 8.33607 90.2179 7.69172C91.355 7.04737 92.6248 6.72519 94.0272 6.72519C95.4296 6.72519 96.6898 7.04737 97.808 7.69172C98.9451 8.33607 99.8358 9.23626 100.48 10.3923C101.124 11.5294 101.447 12.8181 101.447 14.2584C101.447 15.6987 101.124 16.9969 100.48 18.1529C99.8358 19.29 98.9451 20.1807 97.808 20.8251C96.6898 21.4695 95.4296 21.7916 94.0272 21.7916ZM94.0272 20.5124C95.1643 20.5124 96.1782 20.2471 97.0689 19.7164C97.9786 19.1858 98.6892 18.4467 99.2009 17.4991C99.7316 16.5515 99.9969 15.4713 99.9969 14.2584C99.9969 13.0455 99.7316 11.9653 99.2009 11.0177C98.6892 10.0701 97.9786 9.33102 97.0689 8.80038C96.1782 8.26974 95.1643 8.00442 94.0272 8.00442C92.8901 8.00442 91.8667 8.26974 90.957 8.80038C90.0663 9.33102 89.3556 10.0701 88.825 11.0177C88.3133 11.9653 88.0574 13.0455 88.0574 14.2584C88.0574 15.4713 88.3133 16.5515 88.825 17.4991C89.3556 18.4467 90.0663 19.1858 90.957 19.7164C91.8667 20.2471 92.8901 20.5124 94.0272 20.5124Z" fill="#2D2D2D"/>
<path d="M122.222 6.8389V21.6779H120.915V9.11308L114.462 19.7733H113.808L107.383 9.14151V21.6779H106.076V6.8389H107.469L114.177 18.0677L120.915 6.8389H122.222Z" fill="#2D2D2D"/>
<path d="M141.501 6.8389V21.6779H140.108V18.1814C139.521 19.3374 138.696 20.2281 137.635 20.8535C136.574 21.4789 135.37 21.7916 134.025 21.7916C132.641 21.7916 131.39 21.4695 130.272 20.8251C129.154 20.1807 128.273 19.29 127.629 18.1529C127.003 17.0159 126.69 15.7177 126.69 14.2584C126.69 12.7991 127.003 11.501 127.629 10.3639C128.273 9.20784 129.154 8.31712 130.272 7.69172C131.39 7.04737 132.641 6.72519 134.025 6.72519C135.351 6.72519 136.536 7.03789 137.578 7.66329C138.639 8.28869 139.473 9.16046 140.08 10.2786V6.8389H141.501ZM134.11 20.5124C135.247 20.5124 136.261 20.2471 137.152 19.7164C138.061 19.1858 138.772 18.4467 139.284 17.4991C139.814 16.5515 140.08 15.4713 140.08 14.2584C140.08 13.0455 139.814 11.9653 139.284 11.0177C138.772 10.0701 138.061 9.33102 137.152 8.80038C136.261 8.26974 135.247 8.00442 134.11 8.00442C132.973 8.00442 131.95 8.26974 131.04 8.80038C130.149 9.33102 129.438 10.0701 128.908 11.0177C128.396 11.9653 128.14 13.0455 128.14 14.2584C128.14 15.4713 128.396 16.5515 128.908 17.4991C129.438 18.4467 130.149 19.1858 131.04 19.7164C131.95 20.2471 132.973 20.5124 134.11 20.5124Z" fill="#2D2D2D"/>
<path d="M74.2018 44.4197L69.1134 37.7962L64.0249 44.4197H62.4045L68.289 36.7728L62.7172 29.5807H64.3376L69.1134 35.7494L73.8891 29.5807H75.4811L69.9093 36.7728L75.879 44.4197H74.2018Z" fill="#2D2D2D"/>
<path d="M84.866 44.5334C83.4636 44.5334 82.1939 44.2112 81.0568 43.5669C79.9387 42.9225 79.0574 42.0318 78.4131 40.8947C77.7687 39.7387 77.4465 38.4405 77.4465 37.0002C77.4465 35.5599 77.7687 34.2712 78.4131 33.1341C79.0574 31.978 79.9387 31.0779 81.0568 30.4335C82.1939 29.7892 83.4636 29.467 84.866 29.467C86.2685 29.467 87.5287 29.7892 88.6469 30.4335C89.784 31.0779 90.6747 31.978 91.319 33.1341C91.9634 34.2712 92.2856 35.5599 92.2856 37.0002C92.2856 38.4405 91.9634 39.7387 91.319 40.8947C90.6747 42.0318 89.784 42.9225 88.6469 43.5669C87.5287 44.2112 86.2685 44.5334 84.866 44.5334ZM84.866 43.2542C86.0031 43.2542 87.017 42.9889 87.9078 42.4582C88.8174 41.9276 89.5281 41.1885 90.0398 40.2409C90.5704 39.2933 90.8358 38.2131 90.8358 37.0002C90.8358 35.7873 90.5704 34.7071 90.0398 33.7595C89.5281 32.8119 88.8174 32.0728 87.9078 31.5422C87.017 31.0115 86.0031 30.7462 84.866 30.7462C83.729 30.7462 82.7056 31.0115 81.7959 31.5422C80.9052 32.0728 80.1945 32.8119 79.6639 33.7595C79.1522 34.7071 78.8963 35.7873 78.8963 37.0002C78.8963 38.2131 79.1522 39.2933 79.6639 40.2409C80.1945 41.1885 80.9052 41.9276 81.7959 42.4582C82.7056 42.9889 83.729 43.2542 84.866 43.2542Z" fill="#2D2D2D"/>
<path d="M103.538 29.467C104.959 29.467 106.229 29.7892 107.347 30.4335C108.465 31.0779 109.337 31.978 109.963 33.1341C110.588 34.2712 110.901 35.5694 110.901 37.0286C110.901 38.4689 110.588 39.7576 109.963 40.8947C109.356 42.0318 108.503 42.9225 107.404 43.5669C106.305 44.2112 105.054 44.5334 103.652 44.5334C102.287 44.5334 101.084 44.2302 100.042 43.6237C99.0181 43.0173 98.2127 42.155 97.6252 41.0369V49.9346H96.2038V37.0286C96.2038 35.5694 96.5165 34.2712 97.1419 33.1341C97.7673 31.978 98.6296 31.0779 99.7288 30.4335C100.847 29.7892 102.117 29.467 103.538 29.467ZM103.51 43.2826C104.647 43.2826 105.67 43.0173 106.58 42.4866C107.489 41.9371 108.2 41.1885 108.712 40.2409C109.224 39.2933 109.479 38.2226 109.479 37.0286C109.479 35.8157 109.224 34.7355 108.712 33.7879C108.2 32.8403 107.489 32.1012 106.58 31.5706C105.689 31.021 104.666 30.7462 103.51 30.7462C102.373 30.7462 101.349 31.0115 100.44 31.5422C99.5488 32.0728 98.8476 32.8119 98.3359 33.7595C97.8432 34.7071 97.5968 35.7873 97.5968 37.0002C97.5968 38.2131 97.8432 39.2933 98.3359 40.2409C98.8476 41.1885 99.5488 41.9371 100.44 42.4866C101.349 43.0173 102.373 43.2826 103.51 43.2826Z" fill="#2D2D2D"/>
<path d="M121.483 44.5334C120.08 44.5334 118.811 44.2112 117.674 43.5669C116.555 42.9225 115.674 42.0318 115.03 40.8947C114.385 39.7387 114.063 38.4405 114.063 37.0002C114.063 35.5599 114.385 34.2712 115.03 33.1341C115.674 31.978 116.555 31.0779 117.674 30.4335C118.811 29.7892 120.08 29.467 121.483 29.467C122.885 29.467 124.145 29.7892 125.264 30.4335C126.401 31.0779 127.291 31.978 127.936 33.1341C128.58 34.2712 128.902 35.5599 128.902 37.0002C128.902 38.4405 128.58 39.7387 127.936 40.8947C127.291 42.0318 126.401 42.9225 125.264 43.5669C124.145 44.2112 122.885 44.5334 121.483 44.5334ZM121.483 43.2542C122.62 43.2542 123.634 42.9889 124.524 42.4582C125.434 41.9276 126.145 41.1885 126.657 40.2409C127.187 39.2933 127.452 38.2131 127.452 37.0002C127.452 35.7873 127.187 34.7071 126.657 33.7595C126.145 32.8119 125.434 32.0728 124.524 31.5422C123.634 31.0115 122.62 30.7462 121.483 30.7462C120.346 30.7462 119.322 31.0115 118.413 31.5422C117.522 32.0728 116.811 32.8119 116.281 33.7595C115.769 34.7071 115.513 35.7873 115.513 37.0002C115.513 38.2131 115.769 39.2933 116.281 40.2409C116.811 41.1885 117.522 41.9276 118.413 42.4582C119.322 42.9889 120.346 43.2542 121.483 43.2542Z" fill="#2D2D2D"/>
<path d="M153.487 29.5807V44.4197H133.531V29.5807H134.953V43.1689H142.827V29.5807H144.248V43.1689H152.066V29.5807H153.487Z" fill="#2D2D2D"/>
<path d="M165.539 44.5334C164.137 44.5334 162.867 44.2112 161.73 43.5669C160.612 42.9225 159.731 42.0318 159.086 40.8947C158.442 39.7387 158.12 38.4405 158.12 37.0002C158.12 35.5599 158.442 34.2712 159.086 33.1341C159.731 31.978 160.612 31.0779 161.73 30.4335C162.867 29.7892 164.137 29.467 165.539 29.467C166.942 29.467 168.202 29.7892 169.32 30.4335C170.457 31.0779 171.348 31.978 171.992 33.1341C172.637 34.2712 172.959 35.5599 172.959 37.0002C172.959 38.4405 172.637 39.7387 171.992 40.8947C171.348 42.0318 170.457 42.9225 169.32 43.5669C168.202 44.2112 166.942 44.5334 165.539 44.5334ZM165.539 43.2542C166.676 43.2542 167.69 42.9889 168.581 42.4582C169.491 41.9276 170.201 41.1885 170.713 40.2409C171.244 39.2933 171.509 38.2131 171.509 37.0002C171.509 35.7873 171.244 34.7071 170.713 33.7595C170.201 32.8119 169.491 32.0728 168.581 31.5422C167.69 31.0115 166.676 30.7462 165.539 30.7462C164.402 30.7462 163.379 31.0115 162.469 31.5422C161.579 32.0728 160.868 32.8119 160.337 33.7595C159.826 34.7071 159.57 35.7873 159.57 37.0002C159.57 38.2131 159.826 39.2933 160.337 40.2409C160.868 41.1885 161.579 41.9276 162.469 42.4582C163.379 42.9889 164.402 43.2542 165.539 43.2542Z" fill="#2D2D2D"/>
</svg>
